<svg width="20" height="20" viewBox="0 0 20 20" fill="none" xmlns="http://www.w3.org/2000/svg">
<path d="M2.90285 0.853075C3.2771 0.318422 3.88868 0 4.54131 0H15.4587C16.1113 0 16.7229 0.318422 17.0972 0.853075L19.6385 4.48352C19.8738 4.81969 20 5.2201 20 5.63044L20 17C20 18.6569 18.6569 20 17 20L3 20C1.34315 20 0 18.6569 0 17V5.63044C0 5.2201 0.126219 4.81969 0.361536 4.48352L2.90285 0.853075ZM5 2C4.68524 2 4.38885 2.14819 4.2 2.4L3 4H9V2H5ZM11 2V4H17L15.8 2.4C15.6111 2.14819 15.3148 2 15 2H11ZM3 6C2.44772 6 2 6.44772 2 7V17C2 17.5523 2.44772 18 3 18H17C17.5523 18 18 17.5523 18 17V7C18 6.44772 17.5523 6 17 6H3ZM7 9C7 8.44772 7.44772 8 8 8H12C12.5523 8 13 8.44772 13 9C13 9.55228 12.5523 10 12 10H8C7.44772 10 7 9.55228 7 9Z" fill="black" fill-opacity="0.2"/>
</svg>
