<svg width="22" height="22" viewBox="0 0 22 22" fill="none" xmlns="http://www.w3.org/2000/svg">
<path d="M10.0006 15.9649C8.76116 15.8685 7.9468 15.5681 7 15L6.55279 14.8944C6.05881 14.6474 5.85858 14.0468 6.10557 13.5528C6.35256 13.0588 6.95324 12.8586 7 13L7.44721 13.1056C8.82046 13.7922 9.51314 14 11 14C12.9 14 14 13.5417 14 13C14 12.4583 12.9 12 11.019 11.9998C8.17244 12.0538 6 11.1349 6 9C6 7.12792 7.62986 6.226 10.0007 6.03782C10.0002 6.02527 10 6.01266 10 6V5.5C10 4.94772 10.4477 4.5 11 4.5C11.5523 4.5 12 4.94772 12 5.5V6C12 6.01192 11.9998 6.02379 11.9994 6.03561C13.2546 6.13502 14.1402 6.45209 15.4472 7.10557C15.9412 7.35256 16.1414 7.95323 15.8944 8.44721C15.6474 8.94119 15.0468 9.14142 14.5528 8.89443C13.1795 8.2078 12.4869 8 11 8C9.1 8 8 8.45833 8 9C8 9.55706 9.13058 10.0353 11 10C13.9 10 16 10.875 16 13C16 14.8721 14.3701 15.774 11.9993 15.9622C11.9998 15.9747 12 15.9873 12 16V16.5C12 17.0523 11.5523 17.5 11 17.5C10.4477 17.5 10 17.0523 10 16.5V16C10 15.9883 10.0002 15.9766 10.0006 15.9649ZM11 22C4.92487 22 0 17.0751 0 11C0 4.92487 4.92487 0 11 0C17.0751 0 22 4.92487 22 11C22 17.0751 17.0751 22 11 22ZM11 20C15.9706 20 20 15.9706 20 11C20 6.02944 15.9706 2 11 2C6.02944 2 2 6.02944 2 11C2 15.9706 6.02944 20 11 20Z" fill="black" fill-opacity="0.2"/>
</svg>
