<svg width="22" height="21" viewBox="0 0 22 21" fill="none" xmlns="http://www.w3.org/2000/svg">
<path d="M11 0C15.4062 0 19 3.59375 19 8C19 10.3555 17.8086 12.0039 16.7812 13.25C15.7539 14.4961 15 15.3398 15 16.3125V18C15 19.1055 14.1055 20 13 20H12.7188C12.3711 20.5977 11.7383 21 11 21C10.2617 21 9.62891 20.5977 9.28125 20H9C7.89453 20 7 19.1055 7 18V16.3125C7 15.3203 6.24219 14.457 5.21875 13.2188C4.19531 11.9805 3 10.3633 3 8C3 3.59375 6.59375 0 11 0ZM11 2C7.67578 2 5 4.67578 5 8C5 9.70703 5.80469 10.793 6.78125 11.9688C7.69531 13.0703 8.85547 14.2852 9 16H13C13.1445 14.2969 14.3047 13.0742 15.2188 11.9688C16.1914 10.7852 17 9.69922 17 8C17 4.67578 14.3242 2 11 2ZM1.75 2.15625C1.87891 2.15625 2.02734 2.16406 2.15625 2.21875C2.66797 2.42969 2.89844 3.01953 2.6875 3.53125C2.47656 4.04297 1.88672 4.30469 1.375 4.09375C0.863281 3.88281 0.632813 3.29297 0.84375 2.78125C1.00391 2.39844 1.35938 2.16016 1.75 2.15625ZM20.3125 2.15625C20.7031 2.16016 21.0898 2.39844 21.25 2.78125C21.4609 3.29297 21.1992 3.88281 20.6875 4.09375C20.1758 4.30469 19.5859 4.04297 19.375 3.53125C19.1641 3.01953 19.4258 2.42969 19.9375 2.21875C20.0664 2.16406 20.1836 2.15625 20.3125 2.15625ZM1 7C1.55469 7 2 7.44531 2 8C2 8.55469 1.55469 9 1 9C0.445313 9 0 8.55469 0 8C0 7.44531 0.445313 7 1 7ZM21 7C21.5508 7 22 7.44922 22 8C22 8.55078 21.5508 9 21 9C20.4492 9 20 8.55078 20 8C20 7.44922 20.4492 7 21 7ZM20.2188 11.8125C20.3477 11.8125 20.4961 11.8516 20.625 11.9062C21.1367 12.1172 21.3672 12.707 21.1562 13.2188C20.9453 13.7305 20.3555 13.9609 19.8438 13.75C19.332 13.5391 19.1016 12.9492 19.3125 12.4375C19.4727 12.0547 19.8281 11.8164 20.2188 11.8125ZM1.78125 11.8438C2.17188 11.8477 2.52734 12.0859 2.6875 12.4688C2.89844 12.9805 2.66797 13.5703 2.15625 13.7812C1.64453 13.9922 1.05469 13.7305 0.84375 13.2188C0.632813 12.707 0.863281 12.1172 1.375 11.9062C1.50391 11.8516 1.65234 11.8438 1.78125 11.8438ZM13 16H12.0132L12 14C12 12.4971 12.5863 10.243 13.4599 9.02004L14.0934 8.13314C14.3071 7.83397 14.2732 7.42417 14.0132 7.16421C13.7942 6.94526 13.4392 6.94526 13.2203 7.16421L12.7203 7.66421C11.8347 8.54983 10.3988 8.54983 9.51319 7.66421L9.01319 7.16421C8.79424 6.94526 8.43925 6.94526 8.2203 7.16421C7.96034 7.42417 7.92642 7.83397 8.14011 8.13314L8.77361 9.02004C9.64715 10.243 10.0132 12.4971 10.0132 14V16H9.01319V14C9.01319 12.7055 8.71228 10.6546 7.95988 9.60128L7.32638 8.71437C6.82856 8.01743 6.90757 7.06273 7.51319 6.45711C8.12267 5.84763 9.11082 5.84763 9.7203 6.45711L10.2203 6.95711C10.7154 7.4522 11.5181 7.4522 12.0132 6.95711L12.5132 6.45711C13.1227 5.84763 14.1108 5.84763 14.7203 6.45711C15.3259 7.06273 15.4049 8.01743 14.9071 8.71437L14.2736 9.60128C13.5212 10.6546 13 12.7055 13 14V16Z" fill="black" fill-opacity="0.2"/>
</svg>
