<svg width="20" height="12" viewBox="0 0 20 12" fill="none" xmlns="http://www.w3.org/2000/svg">
<path fill-rule="evenodd" clip-rule="evenodd" d="M19.0846 11.9542L16.417 11.9894C16.417 11.9894 15.8421 12.1066 15.0887 11.5617C14.0898 10.8411 13.1466 8.96634 12.4099 9.2124C11.6677 9.46432 11.69 11.1458 11.69 11.1458C11.69 11.1458 11.6956 11.4445 11.5281 11.6379C11.344 11.8488 10.9812 11.8254 10.9812 11.8254H9.78691C9.78691 11.8254 7.14716 12.0538 4.82552 9.51119C2.29181 6.74006 0.0538805 1.26222 0.0538805 1.26222C0.0538805 1.26222 -0.0744797 0.916559 0.0650415 0.740801C0.221306 0.547464 0.651032 0.541606 0.651032 0.541606L3.50843 0.52989C3.50843 0.52989 3.77632 0.576759 3.97165 0.723225C4.12791 0.846256 4.2172 1.0806 4.2172 1.0806C4.2172 1.0806 4.68042 2.30506 5.29431 3.4182C6.48862 5.59176 7.0467 6.06631 7.44852 5.83196C8.0401 5.49216 7.86151 2.76789 7.86151 2.76789C7.86151 2.76789 7.87267 1.77778 7.56572 1.33838C7.32574 0.992721 6.8737 0.893125 6.67836 0.863832C6.51652 0.840397 6.77882 0.447868 7.11925 0.272109C7.63269 0.00846884 8.54237 -0.00910586 9.6139 0.00261068C10.451 0.0143287 10.691 0.0670562 11.0203 0.149076C12.0025 0.400999 11.6732 1.36768 11.6732 3.68184C11.6732 4.42589 11.5449 5.46873 12.0527 5.81439C12.2704 5.96671 12.8062 5.83782 14.1456 3.44749C14.7818 2.31092 15.2562 0.981005 15.2562 0.981005C15.2562 0.981005 15.3622 0.746659 15.524 0.641202C15.6859 0.535748 15.9091 0.570899 15.9091 0.570899L18.9172 0.553324C18.9172 0.553324 19.8213 0.436151 19.9664 0.86969C20.1227 1.32081 19.6315 2.3695 18.4038 4.09195C16.3835 6.91581 16.1603 6.65217 17.8345 8.28674C19.4362 9.851 19.7711 10.6126 19.8213 10.7064C20.4854 11.8605 19.0846 11.9542 19.0846 11.9542Z" fill="white"/>
</svg>
