<svg width="18" height="18" viewBox="0 0 18 18" fill="none" xmlns="http://www.w3.org/2000/svg">
<path d="M5 0C2.23828 0 0 2.23828 0 5V13C0 15.7617 2.23828 18 5 18H13C15.7617 18 18 15.7617 18 13V5C18 2.23828 15.7617 0 13 0H5ZM15 2C15.5508 2 16 2.44922 16 3C16 3.55078 15.5508 4 15 4C14.4492 4 14 3.55078 14 3C14 2.44922 14.4492 2 15 2ZM9 4C11.7617 4 14 6.23828 14 9C14 11.7617 11.7617 14 9 14C6.23828 14 4 11.7617 4 9C4 6.23828 6.23828 4 9 4ZM9 6C7.34375 6 6 7.34375 6 9C6 10.6562 7.34375 12 9 12C10.6562 12 12 10.6562 12 9C12 7.34375 10.6562 6 9 6Z" fill="white"/>
</svg>
