<svg width="20" height="16" viewBox="0 0 20 16" fill="none" xmlns="http://www.w3.org/2000/svg">
<path d="M10.0446 0.5C6.81021 0.5 2.61225 0.762716 2.61225 0.762716C1.12859 0.995813 0 2.18717 0 3.63604V7.99929V12.3625C0.00296952 13.7934 1.109 15.009 2.60923 15.2316C2.61225 15.2359 6.81021 15.5 10.0446 15.5C13.2789 15.5 17.4769 15.2359 17.4769 15.2359C18.9803 15.0123 19.9984 13.7942 20 12.3632V8V3.63533C19.9978 2.20536 18.9807 0.98971 17.4799 0.766977C17.4769 0.762716 13.2789 0.5 10.0446 0.5ZM8 4.5L14 8L8 11.5V4.5Z" fill="white"/>
</svg>
