<svg width="12" height="20" viewBox="0 0 12 20" fill="none" xmlns="http://www.w3.org/2000/svg">
<path d="M6 3C7.10291 3 8 3.89796 8 5.00194C8 6.10204 7.10291 7 6 7C4.89709 7 4 6.10204 4 5.00194C4 3.89796 4.89709 3 6 3ZM6.00195 10C8.76085 10 11 7.76084 11 5.00195C11 2.24306 8.76085 0 6.00195 0C3.24306 0 1 2.24306 1 5.00195C1 7.75694 3.24306 10 6.00195 10ZM8.16481 14.2431C9.25264 13.9941 10.3018 13.5573 11.2692 12.937C12.0002 12.4697 12.2194 11.4869 11.7594 10.7443C11.2993 10.0018 10.3319 9.77465 9.60091 10.2464C7.40806 11.6441 4.59175 11.6441 2.4032 10.2464C1.66794 9.77465 0.700509 10.0018 0.24044 10.7443C-0.21963 11.4869 -0.000343919 12.4697 0.734907 12.937C1.69804 13.5573 2.75147 13.9941 3.8393 14.2431L0.846699 17.2831C0.236141 17.9034 0.236141 18.9124 0.851 19.5326C1.15628 19.8428 1.55615 20 1.95603 20C2.3559 20 2.76007 19.8428 3.06535 19.5326L6.00205 16.5493L8.94306 19.5326C9.55362 20.1529 10.5426 20.1529 11.1574 19.5326C11.768 18.9124 11.768 17.9034 11.1574 17.2831L8.16481 14.2431Z" fill="white"/>
</svg>
