<svg width="20" height="18" viewBox="0 0 20 18" fill="none" xmlns="http://www.w3.org/2000/svg">
<path d="M8 0C7.47656 0 6.94141 0.183594 6.5625 0.5625C6.18359 0.941406 6 1.47656 6 2V3H3C1.34315 3 0 4.34315 0 6V15C0 16.6569 1.34315 18 3 18H17C18.6569 18 20 16.6569 20 15V6C20 4.34315 18.6569 3 17 3H14V2C14 1.47656 13.8164 0.941406 13.4375 0.5625C13.0586 0.183594 12.5234 0 12 0H8ZM8 2H12V3H8V2ZM2 11H18V15C18 15.5523 17.5523 16 17 16H3C2.44772 16 2 15.5523 2 15V11ZM3 5H17C17.5523 5 18 5.44772 18 6V9H2V6C2 5.44772 2.44772 5 3 5ZM10 6C9.44922 6 9 6.44922 9 7C9 7.55078 9.44922 8 10 8C10.5508 8 11 7.55078 11 7C11 6.44922 10.5508 6 10 6Z" fill="white"/>
</svg>
