<svg width="20" height="20" viewBox="0 0 20 20" fill="none" xmlns="http://www.w3.org/2000/svg">
<path d="M3.15268 6.23294C3.04723 5.71222 2.99986 5.16713 2.99986 4.5C2.99986 2.29286 5.08427 0 7.49986 0H12.4999C14.9154 0 16.9999 2.29286 16.9999 4.5C16.9999 5.14235 16.9476 5.69628 16.8372 6.23422C17.2632 6.24062 17.6965 6.33825 18.1102 6.53132C19.7019 7.27408 20.3243 9.08721 19.3943 10.9472C19.4123 10.9111 18.753 12.4734 18.4242 13.0891C17.4576 14.8992 16.2283 16 14.4999 16H10.9999V18H13.9999C14.9999 18 15.9999 19 15.9999 20H3.99986C3.99986 19 4.99986 18 5.99986 18H8.99986V16H5.49986C3.77144 16 2.54214 14.8992 1.57551 13.0891C1.24668 12.4734 0.587361 10.9111 0.605428 10.9472C-0.324575 9.08721 0.297843 7.27408 1.88947 6.53132C2.30022 6.33963 2.73036 6.24202 3.15268 6.23294ZM5.91272 8.08982C6.02308 8.31252 6.11487 8.51636 6.30694 8.95503C6.56697 9.54894 6.68216 9.79558 6.80899 10.0128C6.81545 10.0239 6.82175 10.0345 6.82787 10.0447H13.1719C13.2426 9.92743 13.3274 9.76321 13.427 9.54979C13.499 9.39547 13.5582 9.26233 13.6928 8.95503C13.8954 8.49218 13.9864 8.29076 14.0714 8.12861L14.072 8.12706C14.111 8.02969 14.3673 7.39605 14.4334 7.22838C14.5511 6.92998 14.6356 6.69941 14.7055 6.48207C14.9095 5.84803 14.9999 5.27704 14.9999 4.5C14.9999 3.35714 13.7661 2 12.4999 2H7.49986C6.23362 2 4.99986 3.35714 4.99986 4.5C4.99986 5.23199 5.06442 5.72992 5.21431 6.24655C5.28139 6.47777 5.36815 6.72427 5.49664 7.05354C5.56688 7.23357 5.84136 7.91283 5.91272 8.08982ZM16.66 12.147C16.9351 11.6318 17.5803 10.103 17.6054 10.0528C18.0338 9.19598 17.8322 8.60863 17.2645 8.34368C16.7218 8.09045 16.1667 8.27549 15.8943 8.94721C15.796 9.14372 15.7133 9.3269 15.5249 9.75717C15.3838 10.0794 15.3205 10.2217 15.2394 10.3956C14.6967 11.5585 14.3479 12.0447 13.4999 12.0447H6.49986C5.83747 12.0447 5.45778 11.6653 5.08176 11.0211C4.90054 10.7107 4.76929 10.4297 4.47484 9.75717C4.28646 9.3269 4.20368 9.14372 4.07138 8.87139C3.83302 8.27549 3.27788 8.09045 2.73524 8.34368C2.16751 8.60863 1.96588 9.19598 2.39428 10.0528C2.4194 10.103 3.06458 11.6318 3.33971 12.147C3.99523 13.3745 4.69374 14 5.49986 14H14.4999C15.306 14 16.0045 13.3745 16.66 12.147Z" fill="white"/>
</svg>
