<svg width="18" height="22" viewBox="0 0 18 22" fill="none" xmlns="http://www.w3.org/2000/svg">
<path d="M9 0C10.3008 0 11.4141 0.800781 11.8125 2H15C16.6569 2 18 3.34315 18 5V19C18 20.6569 16.6569 22 15 22H3C1.34315 22 0 20.6569 0 19V5C0 3.34315 1.34315 2 3 2H6.1875C6.58594 0.800781 7.69922 0 9 0ZM9 2C8.39844 2 8 2.39844 8 3C8 3.60156 8.39844 4 9 4C9.60156 4 10 3.60156 10 3C10 2.39844 9.60156 2 9 2ZM3 4C2.44772 4 2 4.44772 2 5V19C2 19.5523 2.44772 20 3 20H15C15.5523 20 16 19.5523 16 19V5C16 4.44772 15.5523 4 15 4H14V5C14 5.55228 13.5523 6 13 6H5C4.44772 6 4 5.55228 4 5V4H3ZM12.9453 9.24224C12.9478 9.23967 12.9504 9.23712 12.953 9.23459C13.2593 8.93679 13.7491 8.94368 14.0469 9.25C14.3501 9.56193 14.3466 10.0596 14.039 10.3672L8.70711 15.6991C8.31658 16.0897 7.68342 16.0897 7.29289 15.6991L4.96099 13.3672C4.65336 13.0596 4.64986 12.5619 4.95312 12.25C4.95566 12.2474 4.95821 12.2448 4.96077 12.2422C5.26287 11.9402 5.75265 11.9402 6.05474 12.2422L8 14.1875L12.9453 9.24224Z" fill="white"/>
</svg>
