<svg width="20" height="20" viewBox="0 0 20 20" fill="none" xmlns="http://www.w3.org/2000/svg">
<path d="M8.92893 12L10.9289 10H5C4.44772 10 4 9.55228 4 9C4 8.44772 4.44772 8 5 8H11C11.5292 8 11.9624 8.41104 11.9977 8.93126L13.0208 7.90812C13.4113 7.51759 14.0445 7.51759 14.435 7.90812L19.0919 12.565C19.4824 12.9555 19.4824 13.5887 19.0919 13.9792L13.364 19.7071C13.1764 19.8946 12.9221 20 12.6569 20H7V14.3431C7 14.225 7.02092 14.1089 7.06072 14H5C4.44772 14 4 13.5523 4 13C4 12.4477 4.44772 12 5 12H8.92893ZM13.7279 10.0294L9 14.7574V18H12.2426L16.9706 13.2721L13.7279 10.0294ZM3 0H13C14.5 0 16 1.5 16 3V5C16 5.55228 15.5523 6 15 6C14.4477 6 14 5.55228 14 5V3C14 2.44772 13.5523 2 13 2H3C2.44772 2 2 2.44772 2 3V16C2 16.5523 2.44772 17 3 17H4C4.55228 17 5 17.4477 5 18C5 18.5523 4.55228 19 4 19H3C1.5 19 0 17.5 0 16V3C0 1.5 1.5 0 3 0ZM4 5C4 4.44772 4.44772 4 5 4H11C11.5523 4 12 4.44772 12 5C12 5.55228 11.5523 6 11 6H5C4.44772 6 4 5.55228 4 5Z" fill="white"/>
</svg>
