<svg width="17" height="22" viewBox="0 0 17 22" fill="none" xmlns="http://www.w3.org/2000/svg">
<path d="M6.74606 14H2.97499C2.54916 14 2.13445 13.8641 1.79122 13.6121C0.90091 12.9583 0.709164 11.7066 1.36294 10.8162L8.63317 0.91572C9.08629 0.298666 9.8519 -0.00559235 10.605 0.13211C11.6915 0.330793 12.4113 1.37268 12.2126 2.45924L11.1994 8.00002H14.9812C15.419 8.00002 15.8448 8.14371 16.1931 8.40903C17.0718 9.07836 17.2415 10.3333 16.5721 11.2119L9.04669 21.0911C8.57142 21.715 7.77534 22.0036 7.01069 21.8291C5.93381 21.5833 5.26007 20.5111 5.50584 19.4342L6.74606 14ZM2.97499 12H9.25394L7.4557 19.8792L14.9812 10H8.80056L10.2452 2.09949L2.97499 12Z" fill="white"/>
</svg>
