<svg width="56" height="56" viewBox="0 0 56 56" fill="none" xmlns="http://www.w3.org/2000/svg">
<path d="M29.3414 19C29.1203 19.6256 29 20.2987 29 21H25.5C21.9101 21 19 23.9101 19 27.5C19 31.0899 21.9101 34 25.5 34H30.6059L30.81 34.0973C31.7629 34.5514 32.6894 35.1352 33.5895 35.8472C33.6663 34.9602 33.7928 34.1193 33.9692 33.3245L34.0504 32.9586L34.3521 32.7362C36.0055 31.5175 37 29.5926 37 27.5C37 27.2211 36.9824 26.9463 36.9483 26.6766C37.628 26.4434 38.2525 26.0915 38.7972 25.6458C38.93 26.2427 39 26.8632 39 27.5C39 30.1014 37.8221 32.5081 35.8485 34.1067C35.7291 34.7112 35.6402 35.3489 35.5821 36.0198C35.5483 36.4097 35.4009 36.7811 35.1581 37.088C34.4728 37.9543 33.215 38.101 32.3487 37.4158C31.6275 36.8453 30.8942 36.3738 30.1485 36H25.5C20.8056 36 17 32.1944 17 27.5C17 22.8056 20.8056 19 25.5 19H29.3414Z" fill="black" fill-opacity="0.2"/>
<path d="M35 25C37.2091 25 39 23.2091 39 21C39 18.7909 37.2091 17 35 17C32.7909 17 31 18.7909 31 21C31 23.2091 32.7909 25 35 25Z" fill="#00B4F0"/>
</svg>
