<svg width="19" height="20" viewBox="0 0 19 20" fill="none" xmlns="http://www.w3.org/2000/svg">
<path d="M12 5C12 3.34314 10.6569 2 9 2C7.34314 2 6 3.34314 6 5C6 6.65686 7.34314 8 9 8C10.6569 8 12 6.65686 12 5ZM14 5C14 7.76143 11.7614 10 9 10C6.23857 10 4 7.76143 4 5C4 2.23858 6.23857 0 9 0C11.7614 0 14 2.23858 14 5ZM18 16.9283C18.122 18.6085 16.7389 20 15.0507 20L2.95681 20C1.26854 20 -0.114524 18.6085 0.00750184 16.9283C0.286783 13.0828 4.26692 11 9.00006 11C13.7239 11 17.7183 13.0499 18 16.9283ZM16.005 17.0732C15.7951 14.1819 12.6055 13 8.99985 13C5.37245 13 2.20898 14.2238 2.00204 17.0732C1.96645 17.5633 2.4005 18 2.95661 18L15.0505 18C15.6066 18 16.0406 17.5633 16.005 17.0732Z" fill="black" fill-opacity="0.2"/>
</svg>
