<svg width="56" height="56" viewBox="0 0 56 56" fill="none" xmlns="http://www.w3.org/2000/svg">
<path d="M31.7581 35.4092C31.9165 35.7374 32.0053 36.1055 32.0053 36.4944C32.0053 37.8751 30.886 38.9944 29.5053 38.9944C28.6469 38.9944 27.8895 38.5617 27.4394 37.9026L26.7646 38.2922C24.9186 39.358 22.4979 38.3319 22.2896 36.3795C22.0906 34.7109 21.0374 32.1674 19.1233 28.8091C17.5916 26.1219 18.3635 22.7482 20.8189 20.9763C20.3218 20.5636 20.0053 19.9409 20.0053 19.2444C20.0053 18.0018 21.0127 16.9944 22.2553 16.9944C23.3792 16.9944 24.3106 17.8184 24.4784 18.8953C26.0778 18.2491 27.8375 18.341 29.3252 19.0565C29.1178 19.6644 29.0053 20.3163 29.0053 20.9944C29.0053 21.0565 29.0063 21.1184 29.0081 21.1801C27.7746 20.321 26.1064 20.197 24.7195 20.9977L22.336 22.3738C20.4303 23.4741 19.7712 25.907 20.8609 27.8187C22.8968 31.3906 24.0373 34.1452 24.2769 36.155C24.3248 36.6038 25.1114 36.9373 25.7646 36.5601L35.2909 31.0601C35.9518 30.6785 36.0616 29.8291 35.6739 29.5618C34.8086 28.9144 33.8843 27.9323 32.8923 26.6117C33.5495 26.8591 34.2616 26.9944 35.0053 26.9944C35.2615 26.9944 35.5139 26.9783 35.7616 26.9472C36.1436 27.3551 36.5032 27.6853 36.8391 27.9368C38.4912 29.0714 38.149 31.7194 36.2909 32.7922L31.7581 35.4092Z" fill="black" fill-opacity="0.2"/>
<path d="M35 25C37.2091 25 39 23.2091 39 21C39 18.7909 37.2091 17 35 17C32.7909 17 31 18.7909 31 21C31 23.2091 32.7909 25 35 25Z" fill="#00B4F0"/>
</svg>
